HIERARCHY
ROOT Hips
{
  OFFSET 263.056 91.6644 -274.608
  CHANNELS 6 Xposition Yposition Zposition Zrotation Xrotation Yrotation
  JOINT LeftUpLeg
  {
    OFFSET 8.64259 1.95398 -2.38835
    CHANNELS 3 Zrotation Xrotation Yrotation
    JOINT LeftLeg
    {
      OFFSET 43.7702 0 0
      CHANNELS 3 Zrotation Xrotation Yrotation
      JOINT LeftFoot
      {
        OFFSET 40.6238 0 0
        CHANNELS 3 Zrotation Xrotation Yrotation
        JOINT LeftToeBase
        {
          OFFSET 12.7242 0 0
          CHANNELS 3 Zrotation Xrotation Yrotation
          End Site
          {
            OFFSET 0 0 0
          }
        }
      }
    }
  }
  JOINT RightUpLeg
  {
    OFFSET -8.2249 1.95398 -2.59336
    CHANNELS 3 Zrotation Xrotation Yrotation
    JOINT RightLeg
    {
      OFFSET 43.5653 0 0
      CHANNELS 3 Zrotation Xrotation Yrotation
      JOINT RightFoot
      {
        OFFSET 40.6238 0 0
        CHANNELS 3 Zrotation Xrotation Yrotation
        JOINT RightToeBase
        {
          OFFSET 12.7242 0 0
          CHANNELS 3 Zrotation Xrotation Yrotation
          End Site
          {
            OFFSET 0 0 0
          }
        }
      }
    }
  }
  JOINT Spine
  {
    OFFSET 0.165834 0.87714 6.61349
    CHANNELS 3 Zrotation Xrotation Yrotation
    JOINT Spine1
    {
      OFFSET 7.38963 1.71661e-005 0
      CHANNELS 3 Zrotation Xrotation Yrotation
      JOINT Spine2
      {
        OFFSET 11.9445 1.14441e-005 0
        CHANNELS 3 Zrotation Xrotation Yrotation
        JOINT Spine3
        {
          OFFSET 14.7254 4.19617e-005 0
          CHANNELS 3 Zrotation Xrotation Yrotation
          JOINT Spine4
          {
            OFFSET 10.9679 0 0
            CHANNELS 3 Zrotation Xrotation Yrotation
            JOINT RightShoulder
            {
              OFFSET 2.46616 -1.6653 3.69651
              CHANNELS 3 Zrotation Xrotation Yrotation
              JOINT RightArm
              {
                OFFSET 13.0012 0 0
                CHANNELS 3 Zrotation Xrotation Yrotation
                JOINT RightForeArm
                {
                  OFFSET 28.7848 1.52588e-005 0
                  CHANNELS 3 Zrotation Xrotation Yrotation
                  JOINT RightHand
                  {
                    OFFSET 26.5688 1.52588e-005 0
                    CHANNELS 3 Zrotation Xrotation Yrotation
                    End Site
                    {
                      OFFSET 0 0 0
                    }
                  }
                }
              }
            }
            JOINT LeftShoulder
            {
              OFFSET 2.38034 -1.29275 -3.7523
              CHANNELS 3 Zrotation Xrotation Yrotation
              JOINT LeftArm
              {
                OFFSET 16.3182 6.10352e-005 0
                CHANNELS 3 Zrotation Xrotation Yrotation
                JOINT LeftForeArm
                {
                  OFFSET 27.0901 0 0
                  CHANNELS 3 Zrotation Xrotation Yrotation
                  JOINT LeftHand
                  {
                    OFFSET 24.5451 1.52588e-005 0
                    CHANNELS 3 Zrotation Xrotation Yrotation
                    End Site
                    {
                      OFFSET 0 0 0
                    }
                  }
                }
              }
            }
            JOINT Neck
            {
              OFFSET 5.0226 -0.0266342 0
              CHANNELS 3 Zrotation Xrotation Yrotation
              JOINT Head
              {
                OFFSET 6.69364 2.86102e-005 0
                CHANNELS 3 Zrotation Xrotation Yrotation
                End Site
                {
                  OFFSET 0 0 0
                }
              }
            }
          }
        }
      }
    }
  }
}
MOTION
Frames:	15
Frame Time:	0.0416667
43.6069 87.5841 -96.9128 -27.3458 -81.3738 -26.0436 -171.798 14.4217 91.0126 -66.4886 8.43335 -0.0302746 51.7225 0.156226 8.98389 44.4265 18.5489 6.21404 177.368 42.9283 94.9938 -54.4499 17.209 0.4301 78.9752 -6.58146 -2.94609 49.3119 1.79861 4.45868 -0.498481 8.52622 -90.9254 9.80736 -1.41287 -1.72228 -1.86387 -1.48729 -1.65845 -24.3926 -0.830063 -2.06716 -4.37991 -0.83006 -2.06717 77.2584 -48.9609 -120.388 25.6948 -8.22952 18.1967 -1.39782 -5.19413 -47.7951 -25.3725 -2.30527 5.52266 -104.379 -39.7744 52.9216 -16.2146 4.97284 -5.56 5.93391 0.173139 -60.1371 18.3042 1.35696 3.55703 12.8156 3.34431 5.55135 8.29112 2.10165 2.34146 
43.1576 87.0826 -90.4338 -40.8568 -77.6538 -39.0649 -170.062 25.6808 89.8645 -71.6817 8.47481 -0.745681 55.2579 3.83491 11.5786 50.0103 24.7756 4.80472 177.484 41.5813 96.5107 -56.4503 16.9232 -0.125599 79.6776 -7.48212 -3.27628 48.1186 1.8109 5.80228 -0.08452 8.69203 -90.9554 9.48112 -0.598646 -1.84829 -2.19097 -0.679407 -1.82018 -24.7154 -0.0156111 -1.94274 -4.70276 -0.0156099 -1.94274 77.0145 -49.2155 -120.626 21.7887 -7.97474 10.4687 -2.51727 -5.75874 -47.5843 -25.404 -2.28508 5.48575 -105.485 -40.1511 51.4094 -18.8927 4.89629 -0.887558 5.08193 0.703379 -54.1489 20.0159 1.56035 3.95203 13.038 3.63023 5.78621 9.97213 2.32234 2.22085 
42.9403 86.4348 -84.1731 -46.8552 -73.7991 -44.4831 -168.795 37.4008 88.9896 -73.4122 6.49652 -0.895355 59.0434 6.90157 12.3128 49.3354 25.7686 10.3414 176.625 40.2957 97.6224 -58.3768 17.2122 -0.111681 80.6176 -8.69027 -3.68473 49.2989 2.29823 8.74327 0.24585 8.85044 -90.9577 9.16964 0.0616234 -1.90141 -2.5027 -0.0221136 -1.90229 -25.0276 0.630131 -1.79507 -5.01497 0.630132 -1.79507 75.3725 -49.6622 -122.815 17.0968 -7.20155 2.88681 -2.93647 -6.14883 -47.1866 -26.9243 -2.24242 4.7467 -106.575 -40.601 49.9825 -22.1384 4.76039 4.39639 4.69364 1.3168 -48.5567 19.9022 1.63068 4.35657 14.4529 4.23489 6.49796 11.186 2.55884 1.37353 
42.752 85.7487 -77.8727 -55.095 -70.243 -52.1333 -168.21 46.746 89.5175 -70.9859 5.90918 -1.11966 62.5672 9.40648 13.4634 48.0173 25.0679 13.3791 176.7 37.1326 97.9657 -59.683 14.8872 -0.741634 82.4454 -10.346 -4.16802 49.9118 2.10934 6.48577 0.619615 9.11625 -90.8473 8.64506 0.860873 -1.73158 -3.02679 0.78384 -1.7678 -25.5578 1.34143 -1.39289 -5.54513 1.34144 -1.39289 73.8652 -49.2162 -125.211 13.6528 -6.12432 -3.95285 -2.97127 -5.13243 -49.5855 -32.9964 -2.53713 3.87671 -106.551 -40.7187 50.0823 -26.2266 5.96485 8.78526 3.43352 1.88239 -41.2086 19.3351 1.30115 2.88094 17.1563 4.97143 6.86942 10.4644 2.88797 0.526968 
42.4811 84.7896 -71.0617 -60.7734 -66.5274 -58.5858 -168.055 54.1887 90.501 -64.9972 6.62144 -1.8393 64.6078 10.2938 14.8914 49.8035 27.2531 12.8274 177.204 33.2858 96.4375 -60.3864 14.0979 -1.94136 85.6362 -12.9768 -4.821 52.9784 2.42594 6.28146 0.933186 9.29328 -90.5432 8.29551 1.62339 -1.16972 -3.37499 1.57033 -1.24005 -25.9169 1.89985 -0.627648 -5.90419 1.89986 -0.627642 73.3893 -47.921 -126.551 11.7414 -5.71299 -9.83846 -4.6106 -5.01156 -56.1901 -37.8936 -2.9687 4.05375 -105.684 -40.7149 51.4021 -31.9912 8.71655 14.521 3.0641 4.91071 -36.8863 18.7142 1.31025 3.15145 20.6518 5.73613 7.04832 8.80807 3.30459 0.167989 
42.1717 83.6475 -63.5851 -65.035 -62.9984 -63.648 -168.359 59.991 93.32 -57.4819 4.13533 -2.71337 67.4221 9.63752 11.4984 50.5482 28.8351 14.3538 177.757 29.2464 94.0455 -61.5758 12.3558 -3.30704 85.7578 -13.9543 -5.1385 59.316 2.07133 0.891594 1.30001 9.24654 -90.17 8.3864 2.51943 -0.489311 -3.28224 2.49545 -0.599801 -25.8369 2.54992 0.290998 -5.82425 2.54993 0.291004 75.8049 -45.8484 -124.017 13.5717 -7.29003 -14.6876 -10.8111 -3.37243 -68.6756 -39.9153 -2.92739 3.67058 -103.999 -40.2191 53.7412 -40.0574 11.8997 22.7635 3.5417 9.89109 -37.1417 19.3678 1.51603 3.97848 23.0415 5.8918 5.65151 6.49385 3.86857 1.42969 
41.4794 82.614 -54.9168 -67.0675 -60.1817 -67.3397 -168.456 63.3876 96.0883 -48.2551 2.47196 -4.49863 69.4126 9.33824 9.8161 49.0039 28.1097 17.9515 178.479 24.2804 90.0154 -61.3346 10.1413 -5.11863 84.0074 -13.7443 -5.2704 65.7051 1.62861 -2.54607 1.71363 8.91537 -89.7515 9.04168 3.5291 0.24592 -2.62448 3.53651 0.0901637 -25.1941 3.29184 1.29632 -5.18145 3.29186 1.29632 81.2363 -40.9947 -117.82 19.7863 -12.1431 -18.75 -18.7031 -0.890584 -81.9837 -43.0133 -3.06618 3.77468 -101.901 -39.3835 56.6214 -49.9613 14.3158 34.5206 5.32662 13.1227 -44.0303 20.2901 1.67973 4.44734 24.299 5.24725 5.06934 3.84478 3.3628 1.56957 
40.6846 81.8625 -44.8821 -68.9522 -59.4759 -70.8798 -169.639 63.8337 99.1904 -39.055 1.92238 -6.40925 68.8329 7.64821 9.37032 52.002 32.4311 18.0013 178.361 16.1711 84.9849 -58.1762 6.36608 -7.14075 79.6714 -11.8413 -5.02862 71.4349 0.843146 -5.74916 2.0875 8.51569 -89.318 9.82476 4.47004 0.997577 -1.83875 4.50962 0.799497 -24.4217 3.96335 2.29669 -4.40904 3.96335 2.29669 86.95 -32.4346 -111.645 30.0846 -18.4031 -19.7734 -30.196 7.85259 -92.2638 -41.6998 -3.96656 7.10351 -98.1076 -35.9716 61.211 -61.0314 13.2119 46.6109 7.41814 12.0692 -53.1259 20.9284 1.81408 4.84835 23.5067 3.73752 2.80771 1.92927 2.70811 1.79845 
39.8623 81.8572 -33.2789 -73.5788 -61.4964 -75.1905 -170.906 60.3037 100.688 -31.853 0.900049 -6.18395 66.9892 6.3239 10.0432 54.2994 34.587 15.8569 176.153 3.24924 80.259 -48.9956 -0.138095 -8.7588 70.2267 -7.42087 -3.88793 77.9902 0.922461 -6.02894 2.33999 8.36135 -89.0337 10.1237 5.10334 1.48994 -1.53777 5.16397 1.26335 -24.1304 4.41936 2.95711 -4.11773 4.41937 2.95711 90.845 -24.599 -107.205 38.0027 -24.3859 -20.3321 -35.1615 13.3769 -100.59 -40.3105 -4.40058 8.98964 -95.5977 -30.6017 63.1004 -69.2252 8.13209 53.9289 9.46504 10.5792 -58.6412 21.2706 1.75752 4.45422 21.6331 1.48726 -1.60468 -0.0888317 2.04592 3.33548 
39.7542 82.4719 -21.0927 -77.7628 -64.1868 -78.7405 -171.566 55.5094 99.2668 -29.0687 -0.140253 -4.45905 65.8717 7.35858 10.4605 52.1836 31.5844 15.6052 173.126 -9.5457 76.2725 -36.7683 -2.89472 -9.18412 45.2758 1.5751 2.07364 62.7734 2.02284 0.238707 2.35407 8.13676 -88.7953 10.5589 5.24219 1.92384 -1.10259 5.32175 1.6907 -23.6909 4.42158 3.41234 -3.67824 4.42158 3.41235 92.4857 -19.1771 -105.813 41.3253 -28.8466 -21.3489 -36.2992 15.5608 -101.688 -42.1306 -4.95465 9.98343 -94.5848 -26.6202 63.0837 -72.7818 1.12821 56.7412 10.9087 9.16532 -61.0074 22.8276 2.14074 5.5756 17.4879 -0.358813 -7.76159 -1.05184 2.02958 6.64465 
39.986 83.3358 -8.78177 -76.9813 -66.692 -74.6166 -173.958 53.4604 99.8174 -32.4627 3.29019 -2.4219 62.6183 4.92164 10.0346 53.5515 31.498 11.317 174.327 -13.8534 79.3774 -37.292 -4.1806 -9.14259 40.9449 3.38106 3.52171 40.6186 0.817241 2.19586 2.38659 7.60461 -88.8724 11.6315 5.27563 1.69924 -0.0295599 5.34529 1.46482 -22.623 4.52086 3.20855 -2.61037 4.52086 3.20855 92.1911 -24.313 -104.378 35.4026 -32.5302 -22.7475 -33.878 12.2356 -98.2333 -40.6542 -4.19946 8.11878 -94.2062 -26.6699 63.8411 -69.7256 -2.72269 56.0598 8.01907 5.12025 -61.038 25.9011 2.46961 5.76964 14.3277 -2.36963 -15.1103 -1.45493 1.84669 9.96513 
39.9034 84.0815 1.67472 -70.4847 -68.4699 -67.1398 -174.662 55.5338 98.8243 -42.2422 9.94346 -2.55011 61.0823 2.47607 8.85896 52.0604 29.438 10.8986 176.498 -6.3075 83.6479 -49.7959 1.44576 -7.44691 44.696 1.42198 1.62064 42.4441 0.913148 1.20919 2.3114 7.36199 -88.8983 12.1199 5.11538 1.63454 0.458277 5.18235 1.40728 -22.1319 4.38747 3.09848 -2.11927 4.38747 3.09848 89.868 -32.658 -106.044 28.4843 -29.8944 -24.2389 -27.0367 6.94289 -91.3891 -41.8761 -4.30235 7.69004 -97.2305 -35.3626 62.4668 -58.1268 0.805513 47.7285 4.72672 1.49363 -60.9108 31.5714 3.24777 6.53418 19.4707 -2.68306 -9.17306 -4.61253 0.181954 2.55916 
39.3224 85.0871 10.5595 -72.3575 -73.4453 -71.7124 -172.963 49.6698 92.4999 -45.5873 12.5229 -2.57291 58.9668 1.43826 9.70153 53.2586 27.6676 2.50473 174.402 2.52681 84.2393 -64.6198 11.7064 -4.60503 51.9024 -1.97967 -1.1416 44.8988 1.01241 0.404294 2.06295 7.91827 -88.5891 10.9894 4.76024 2.35691 -0.674546 4.85932 2.14477 -23.242 3.83205 3.67931 -3.22935 3.83206 3.67931 82.1913 -43.9408 -114.949 19.468 -18.4445 -23.1141 -15.4134 2.32169 -85.0427 -49.294 -4.06416 4.55229 -105.246 -41.3595 52.4063 -43.1461 7.24016 32.2246 1.34775 -1.22611 -62.3373 37.7303 3.67759 5.84167 25.1847 -4.0618 -4.32266 -7.65129 -2.31194 -0.730696 
39.6831 86.7909 18.9402 -80.5477 -77.7701 -80.2089 -172.967 42.2987 88.9618 -47.6727 12.6389 -2.09967 60.3922 4.80272 13.0103 45.8228 17.2167 -8.02695 172.085 13.0999 86.5621 -71.2072 19.9441 -2.18832 59.8759 -5.23369 -3.08942 44.4869 0.983554 0.395568 1.83255 8.22316 -88.5537 10.3775 4.31292 2.49557 -1.28832 4.41854 2.30311 -23.8427 3.36392 3.67655 -3.83002 3.36391 3.67653 80.021 -43.7421 -118.526 17.0169 -11.2709 -19.5369 -7.68256 -0.260718 -89.8531 -51.4749 -4.24351 3.87549 -106.304 -42.479 51.3844 -26.0551 12.8819 11.3134 23.6332 12.8382 -66.0341 28.0281 4.54618 12.6257 24.6403 -5.2823 -5.3911 -7.87121 -3.17072 0.0862248 
40.854 88.414 26.8202 -81.8033 -81.2139 -79.5159 -174.394 37.2183 88.0306 -49.0398 12.0573 -0.842788 61.7527 7.41688 14.6604 40.0159 11.6553 -8.52898 172.59 25.9522 91.1479 -71.567 18.1659 -0.850783 63.451 -5.59349 -3.1811 50.9692 1.72945 2.7328 1.47457 8.23661 -88.781 10.3659 3.49572 2.11702 -1.3018 3.58549 1.96103 -23.8479 2.6981 3.06976 -3.83524 2.69811 3.06977 83.524 -39.8018 -114.555 12.5862 -4.10467 -18.2706 -19.9514 7.52328 -101.47 -48.8887 -4.58119 6.08405 -108.09 -41.098 47.9681 -8.00687 2.59172 -2.14742 3.52572 2.43636 -69.0879 68.971 8.70307 7.85649 21.394 -5.25641 -8.05061 -5.58349 -2.45723 0.118843 
